<mxfile host="app.diagrams.net" agent="Mozilla/5.0 (Windows NT 10.0; Win64; x64) AppleWebKit/537.36 (KHTML, like Gecko) Chrome/131.0.0.0 Safari/537.36" version="24.9.1">
  <diagram name="Сторінка-1" id="LQrrY0VP0vmvlUjKjynN">
    <mxGraphModel dx="2787" dy="867" grid="1" gridSize="10" guides="1" tooltips="1" connect="1" arrows="1" fold="1" page="1" pageScale="1" pageWidth="827" pageHeight="1169" math="0" shadow="0">
      <root>
        <mxCell id="0" />
        <mxCell id="1" parent="0" />
        <mxCell id="9wCwzHaC7UaSX-mSL_6L-4" value="" style="edgeStyle=orthogonalEdgeStyle;rounded=0;orthogonalLoop=1;jettySize=auto;html=1;" edge="1" parent="1" source="9wCwzHaC7UaSX-mSL_6L-1" target="9wCwzHaC7UaSX-mSL_6L-3">
          <mxGeometry relative="1" as="geometry" />
        </mxCell>
        <mxCell id="9wCwzHaC7UaSX-mSL_6L-1" value="Start" style="ellipse;whiteSpace=wrap;html=1;" vertex="1" parent="1">
          <mxGeometry x="160" y="20" width="80" height="40" as="geometry" />
        </mxCell>
        <mxCell id="9wCwzHaC7UaSX-mSL_6L-2" value="End" style="ellipse;whiteSpace=wrap;html=1;" vertex="1" parent="1">
          <mxGeometry x="-55" y="490" width="80" height="40" as="geometry" />
        </mxCell>
        <mxCell id="9wCwzHaC7UaSX-mSL_6L-6" value="" style="edgeStyle=orthogonalEdgeStyle;rounded=0;orthogonalLoop=1;jettySize=auto;html=1;" edge="1" parent="1" source="9wCwzHaC7UaSX-mSL_6L-3" target="9wCwzHaC7UaSX-mSL_6L-5">
          <mxGeometry relative="1" as="geometry" />
        </mxCell>
        <mxCell id="9wCwzHaC7UaSX-mSL_6L-3" value="Initialize : vector, low, high, mid,&amp;nbsp; result" style="rounded=1;whiteSpace=wrap;html=1;" vertex="1" parent="1">
          <mxGeometry x="140" y="90" width="120" height="50" as="geometry" />
        </mxCell>
        <mxCell id="9wCwzHaC7UaSX-mSL_6L-21" value="" style="edgeStyle=orthogonalEdgeStyle;rounded=0;orthogonalLoop=1;jettySize=auto;html=1;" edge="1" parent="1" source="9wCwzHaC7UaSX-mSL_6L-5" target="9wCwzHaC7UaSX-mSL_6L-20">
          <mxGeometry relative="1" as="geometry" />
        </mxCell>
        <mxCell id="9wCwzHaC7UaSX-mSL_6L-5" value="Input n, m" style="shape=parallelogram;perimeter=parallelogramPerimeter;whiteSpace=wrap;html=1;fixedSize=1;" vertex="1" parent="1">
          <mxGeometry x="150" y="170" width="100" height="40" as="geometry" />
        </mxCell>
        <mxCell id="9wCwzHaC7UaSX-mSL_6L-11" value="" style="edgeStyle=orthogonalEdgeStyle;rounded=0;orthogonalLoop=1;jettySize=auto;html=1;" edge="1" parent="1" source="9wCwzHaC7UaSX-mSL_6L-8" target="9wCwzHaC7UaSX-mSL_6L-10">
          <mxGeometry relative="1" as="geometry" />
        </mxCell>
        <mxCell id="9wCwzHaC7UaSX-mSL_6L-8" value="high = *max_element(lengths.begin(), lengths.end())" style="rounded=0;whiteSpace=wrap;html=1;" vertex="1" parent="1">
          <mxGeometry x="115" y="310" width="170" height="50" as="geometry" />
        </mxCell>
        <mxCell id="9wCwzHaC7UaSX-mSL_6L-30" style="edgeStyle=orthogonalEdgeStyle;rounded=0;orthogonalLoop=1;jettySize=auto;html=1;exitX=0;exitY=0.5;exitDx=0;exitDy=0;entryX=0.5;entryY=0;entryDx=0;entryDy=0;" edge="1" parent="1" source="9wCwzHaC7UaSX-mSL_6L-10" target="9wCwzHaC7UaSX-mSL_6L-12">
          <mxGeometry relative="1" as="geometry" />
        </mxCell>
        <mxCell id="9wCwzHaC7UaSX-mSL_6L-10" value="While :&lt;div&gt;&amp;nbsp;( high - low &amp;gt; 1e-7)&lt;/div&gt;" style="rhombus;whiteSpace=wrap;html=1;" vertex="1" parent="1">
          <mxGeometry x="130" y="390" width="140" height="70" as="geometry" />
        </mxCell>
        <mxCell id="9wCwzHaC7UaSX-mSL_6L-27" value="" style="edgeStyle=orthogonalEdgeStyle;rounded=0;orthogonalLoop=1;jettySize=auto;html=1;" edge="1" parent="1" source="9wCwzHaC7UaSX-mSL_6L-12" target="9wCwzHaC7UaSX-mSL_6L-25">
          <mxGeometry relative="1" as="geometry" />
        </mxCell>
        <mxCell id="9wCwzHaC7UaSX-mSL_6L-12" value="mid = (low + high) / 2.0" style="rounded=0;whiteSpace=wrap;html=1;" vertex="1" parent="1">
          <mxGeometry x="40" y="470" width="140" height="30" as="geometry" />
        </mxCell>
        <mxCell id="9wCwzHaC7UaSX-mSL_6L-36" style="edgeStyle=orthogonalEdgeStyle;rounded=0;orthogonalLoop=1;jettySize=auto;html=1;exitX=1;exitY=0.5;exitDx=0;exitDy=0;entryX=1;entryY=0.5;entryDx=0;entryDy=0;" edge="1" parent="1" source="9wCwzHaC7UaSX-mSL_6L-17" target="9wCwzHaC7UaSX-mSL_6L-10">
          <mxGeometry relative="1" as="geometry" />
        </mxCell>
        <mxCell id="9wCwzHaC7UaSX-mSL_6L-17" value="result = mid&lt;div&gt;low = mid&lt;/div&gt;" style="rounded=0;whiteSpace=wrap;html=1;" vertex="1" parent="1">
          <mxGeometry x="250" y="490" width="100" height="40" as="geometry" />
        </mxCell>
        <mxCell id="9wCwzHaC7UaSX-mSL_6L-23" style="edgeStyle=orthogonalEdgeStyle;rounded=0;orthogonalLoop=1;jettySize=auto;html=1;exitX=0.5;exitY=1;exitDx=0;exitDy=0;entryX=0.5;entryY=0;entryDx=0;entryDy=0;" edge="1" parent="1" source="9wCwzHaC7UaSX-mSL_6L-20" target="9wCwzHaC7UaSX-mSL_6L-8">
          <mxGeometry relative="1" as="geometry" />
        </mxCell>
        <mxCell id="9wCwzHaC7UaSX-mSL_6L-20" value="canMakeCandles" style="shape=process;whiteSpace=wrap;html=1;backgroundOutline=1;" vertex="1" parent="1">
          <mxGeometry x="140" y="240" width="120" height="40" as="geometry" />
        </mxCell>
        <mxCell id="9wCwzHaC7UaSX-mSL_6L-26" value="" style="edgeStyle=orthogonalEdgeStyle;rounded=0;orthogonalLoop=1;jettySize=auto;html=1;" edge="1" parent="1" source="9wCwzHaC7UaSX-mSL_6L-25" target="9wCwzHaC7UaSX-mSL_6L-17">
          <mxGeometry relative="1" as="geometry" />
        </mxCell>
        <mxCell id="9wCwzHaC7UaSX-mSL_6L-31" value="YES" style="edgeLabel;html=1;align=center;verticalAlign=middle;resizable=0;points=[];" vertex="1" connectable="0" parent="9wCwzHaC7UaSX-mSL_6L-26">
          <mxGeometry x="-0.0182" y="1" relative="1" as="geometry">
            <mxPoint as="offset" />
          </mxGeometry>
        </mxCell>
        <mxCell id="9wCwzHaC7UaSX-mSL_6L-34" style="edgeStyle=orthogonalEdgeStyle;rounded=0;orthogonalLoop=1;jettySize=auto;html=1;exitX=0.5;exitY=1;exitDx=0;exitDy=0;entryX=0;entryY=0.5;entryDx=0;entryDy=0;" edge="1" parent="1" source="9wCwzHaC7UaSX-mSL_6L-25" target="9wCwzHaC7UaSX-mSL_6L-32">
          <mxGeometry relative="1" as="geometry" />
        </mxCell>
        <mxCell id="9wCwzHaC7UaSX-mSL_6L-35" value="ELSE" style="edgeLabel;html=1;align=center;verticalAlign=middle;resizable=0;points=[];" vertex="1" connectable="0" parent="9wCwzHaC7UaSX-mSL_6L-34">
          <mxGeometry x="0.1401" y="1" relative="1" as="geometry">
            <mxPoint as="offset" />
          </mxGeometry>
        </mxCell>
        <mxCell id="9wCwzHaC7UaSX-mSL_6L-25" value="if ( canMakeCandles (lengths, n, mid))" style="rhombus;whiteSpace=wrap;html=1;" vertex="1" parent="1">
          <mxGeometry x="30" y="530" width="160" height="70" as="geometry" />
        </mxCell>
        <mxCell id="9wCwzHaC7UaSX-mSL_6L-38" style="edgeStyle=orthogonalEdgeStyle;rounded=0;orthogonalLoop=1;jettySize=auto;html=1;exitX=1;exitY=0.5;exitDx=0;exitDy=0;entryX=1;entryY=0.5;entryDx=0;entryDy=0;" edge="1" parent="1" source="9wCwzHaC7UaSX-mSL_6L-32" target="9wCwzHaC7UaSX-mSL_6L-10">
          <mxGeometry relative="1" as="geometry" />
        </mxCell>
        <mxCell id="9wCwzHaC7UaSX-mSL_6L-32" value="high = mid" style="rounded=0;whiteSpace=wrap;html=1;" vertex="1" parent="1">
          <mxGeometry x="250" y="610" width="100" height="30" as="geometry" />
        </mxCell>
        <mxCell id="9wCwzHaC7UaSX-mSL_6L-42" value="" style="edgeStyle=orthogonalEdgeStyle;rounded=0;orthogonalLoop=1;jettySize=auto;html=1;" edge="1" parent="1" source="9wCwzHaC7UaSX-mSL_6L-39" target="9wCwzHaC7UaSX-mSL_6L-2">
          <mxGeometry relative="1" as="geometry" />
        </mxCell>
        <mxCell id="9wCwzHaC7UaSX-mSL_6L-39" value="Output :&lt;div&gt;result&lt;/div&gt;" style="shape=parallelogram;perimeter=parallelogramPerimeter;whiteSpace=wrap;html=1;fixedSize=1;" vertex="1" parent="1">
          <mxGeometry x="-60" y="402.5" width="90" height="45" as="geometry" />
        </mxCell>
        <mxCell id="9wCwzHaC7UaSX-mSL_6L-41" value="" style="endArrow=classic;html=1;rounded=0;entryX=1;entryY=0.5;entryDx=0;entryDy=0;exitX=0;exitY=0.5;exitDx=0;exitDy=0;" edge="1" parent="1" source="9wCwzHaC7UaSX-mSL_6L-10" target="9wCwzHaC7UaSX-mSL_6L-39">
          <mxGeometry width="50" height="50" relative="1" as="geometry">
            <mxPoint x="110" y="510" as="sourcePoint" />
            <mxPoint x="160" y="460" as="targetPoint" />
          </mxGeometry>
        </mxCell>
        <mxCell id="9wCwzHaC7UaSX-mSL_6L-45" value="" style="edgeStyle=orthogonalEdgeStyle;rounded=0;orthogonalLoop=1;jettySize=auto;html=1;" edge="1" parent="1" source="9wCwzHaC7UaSX-mSL_6L-43" target="9wCwzHaC7UaSX-mSL_6L-44">
          <mxGeometry relative="1" as="geometry" />
        </mxCell>
        <mxCell id="9wCwzHaC7UaSX-mSL_6L-43" value="canMakeCandles" style="ellipse;whiteSpace=wrap;html=1;" vertex="1" parent="1">
          <mxGeometry x="440" y="120" width="110" height="50" as="geometry" />
        </mxCell>
        <mxCell id="9wCwzHaC7UaSX-mSL_6L-50" style="edgeStyle=orthogonalEdgeStyle;rounded=0;orthogonalLoop=1;jettySize=auto;html=1;exitX=0.5;exitY=1;exitDx=0;exitDy=0;entryX=0.5;entryY=0;entryDx=0;entryDy=0;" edge="1" parent="1" source="9wCwzHaC7UaSX-mSL_6L-44" target="9wCwzHaC7UaSX-mSL_6L-46">
          <mxGeometry relative="1" as="geometry" />
        </mxCell>
        <mxCell id="9wCwzHaC7UaSX-mSL_6L-44" value="initialize : vector, n, length" style="rounded=1;whiteSpace=wrap;html=1;" vertex="1" parent="1">
          <mxGeometry x="420" y="200" width="150" height="40" as="geometry" />
        </mxCell>
        <mxCell id="9wCwzHaC7UaSX-mSL_6L-51" style="edgeStyle=orthogonalEdgeStyle;rounded=0;orthogonalLoop=1;jettySize=auto;html=1;exitX=0.5;exitY=1;exitDx=0;exitDy=0;entryX=0.5;entryY=0;entryDx=0;entryDy=0;" edge="1" parent="1" source="9wCwzHaC7UaSX-mSL_6L-46" target="9wCwzHaC7UaSX-mSL_6L-47">
          <mxGeometry relative="1" as="geometry" />
        </mxCell>
        <mxCell id="9wCwzHaC7UaSX-mSL_6L-54" style="edgeStyle=orthogonalEdgeStyle;rounded=0;orthogonalLoop=1;jettySize=auto;html=1;exitX=0;exitY=0.5;exitDx=0;exitDy=0;entryX=0.5;entryY=0;entryDx=0;entryDy=0;" edge="1" parent="1" source="9wCwzHaC7UaSX-mSL_6L-46" target="9wCwzHaC7UaSX-mSL_6L-49">
          <mxGeometry relative="1" as="geometry">
            <Array as="points">
              <mxPoint x="420" y="315" />
              <mxPoint x="420" y="460" />
              <mxPoint x="500" y="460" />
            </Array>
          </mxGeometry>
        </mxCell>
        <mxCell id="9wCwzHaC7UaSX-mSL_6L-46" value="for ( int l : lengths" style="rhombus;whiteSpace=wrap;html=1;" vertex="1" parent="1">
          <mxGeometry x="452.5" y="280" width="85" height="70" as="geometry" />
        </mxCell>
        <mxCell id="9wCwzHaC7UaSX-mSL_6L-53" style="edgeStyle=orthogonalEdgeStyle;rounded=0;orthogonalLoop=1;jettySize=auto;html=1;exitX=1;exitY=0.5;exitDx=0;exitDy=0;entryX=1;entryY=0.5;entryDx=0;entryDy=0;" edge="1" parent="1" source="9wCwzHaC7UaSX-mSL_6L-47" target="9wCwzHaC7UaSX-mSL_6L-46">
          <mxGeometry relative="1" as="geometry">
            <mxPoint x="600" y="310" as="targetPoint" />
          </mxGeometry>
        </mxCell>
        <mxCell id="9wCwzHaC7UaSX-mSL_6L-47" value="&lt;div&gt;count += static_cast&amp;lt;int&amp;gt;(l / length);&amp;nbsp;&lt;/div&gt;" style="rounded=0;whiteSpace=wrap;html=1;" vertex="1" parent="1">
          <mxGeometry x="437.5" y="380" width="115" height="55" as="geometry" />
        </mxCell>
        <mxCell id="9wCwzHaC7UaSX-mSL_6L-49" value="&lt;div&gt;&lt;span style=&quot;background-color: initial;&quot;&gt;&amp;nbsp;return count &amp;gt;= n&lt;/span&gt;&lt;/div&gt;" style="ellipse;whiteSpace=wrap;html=1;" vertex="1" parent="1">
          <mxGeometry x="440" y="490" width="120" height="60" as="geometry" />
        </mxCell>
      </root>
    </mxGraphModel>
  </diagram>
</mxfile>
